<svg xmlns="http://www.w3.org/2000/svg" viewBox="0 0 100 100" width="512" height="512">
  <defs>
    <linearGradient id="bg512" x1="0%" y1="0%" x2="100%" y2="100%">
      <stop offset="0%" stop-color="#052e16"/>
      <stop offset="55%" stop-color="#14532d"/>
      <stop offset="100%" stop-color="#064e3b"/>
    </linearGradient>
    <radialGradient id="glow512" cx="50%" cy="52%" r="46%">
      <stop offset="0%" stop-color="#22c55e" stop-opacity="0.22"/>
      <stop offset="100%" stop-color="#22c55e" stop-opacity="0"/>
    </radialGradient>
    <linearGradient id="cat512" x1="0%" y1="0%" x2="0%" y2="100%">
      <stop offset="0%" stop-color="#f0fdf4"/>
      <stop offset="100%" stop-color="#dcfce7"/>
    </linearGradient>
  </defs>
  <!-- Background — maskable: fills entire square, cat within safe zone -->
  <rect width="100" height="100" fill="url(#bg512)"/>
  <!-- Rounded corners overlay (cosmetic, for non-maskable use) -->
  <rect width="100" height="100" rx="22" fill="none"/>
  <!-- Subtle glow -->
  <ellipse cx="50" cy="53" rx="38" ry="36" fill="url(#glow512)"/>
  <!-- Cat body -->
  <path d="M18 46 L25 14 L38 36 Q50 30 62 36 L75 14 L82 46 Q86 60 82 70 Q70 88 50 88 Q30 88 18 70 Q14 60 18 46 Z" fill="url(#cat512)" opacity="0.95"/>
  <!-- Ear inner shadows -->
  <path d="M26 18 L20 43 L37 36 Z" fill="#052e16" opacity="0.35"/>
  <path d="M74 18 L80 43 L63 36 Z" fill="#052e16" opacity="0.35"/>
  <!-- Eyes -->
  <ellipse cx="37" cy="58" rx="5.5" ry="5" fill="#052e16" opacity="0.85"/>
  <ellipse cx="63" cy="58" rx="5.5" ry="5" fill="#052e16" opacity="0.85"/>
</svg>
