<?xml version="1.0" encoding="utf-8"?>
<!-- Generator: Adobe Illustrator 16.0.0, SVG Export Plug-In . SVG Version: 6.00 Build 0)  -->
<!DOCTYPE svg PUBLIC "-//W3C//DTD SVG 1.1//EN" "http://www.w3.org/Graphics/SVG/1.1/DTD/svg11.dtd">
<svg version="1.1" id="Capa_1" xmlns="http://www.w3.org/2000/svg" xmlns:xlink="http://www.w3.org/1999/xlink" x="0px" y="0px"
	 width="590.459px" height="60px" viewBox="0 0 590.459 60" enable-background="new 0 0 590.459 60" xml:space="preserve">
<g>
	<path fill="#FFFFFF" d="M2.5,50.274l17.578-39.438h9.014l17.634,39.438h-9.577L22.725,15.455h3.605L11.852,50.274H2.5z
		 M11.289,41.822l2.422-6.929h20.283l2.479,6.929H11.289z"/>
	<g>
		<path fill="#FFFFFF" d="M50.838,50.273V10.836h17.071c3.53,0,6.573,0.572,9.127,1.717c2.554,1.146,4.526,2.791,5.917,4.933
			c1.389,2.139,2.083,4.695,2.083,7.661c0,2.931-0.694,5.458-2.083,7.575c-1.39,2.124-3.362,3.749-5.917,4.876
			c-2.554,1.127-5.597,1.69-9.127,1.69h-12l4.057-4v14.985H50.838z M59.966,36.301l-4.057-4.282h11.493
			c2.817,0,4.921-0.609,6.311-1.83c1.389-1.22,2.083-2.901,2.083-5.042c0-2.178-0.695-3.868-2.083-5.07
			c-1.39-1.202-3.494-1.803-6.311-1.803H55.909l4.057-4.34V36.301z M75.909,50.273l-9.859-14.31h9.747l9.973,14.31H75.909z"/>
		<path fill="#FFFFFF" d="M111.121,50.948c-3.042,0-5.869-0.497-8.479-1.491c-2.612-0.997-4.874-2.413-6.789-4.254
			c-1.916-1.841-3.409-4.001-4.479-6.48c-1.07-2.478-1.605-5.201-1.605-8.168c0-2.966,0.535-5.689,1.605-8.17
			c1.071-2.479,2.572-4.638,4.507-6.479c1.935-1.839,4.198-3.258,6.789-4.254c2.592-0.994,5.428-1.491,8.507-1.491
			c3.418,0,6.508,0.591,9.269,1.774c2.76,1.182,5.079,2.921,6.957,5.21l-5.858,5.409c-1.353-1.539-2.854-2.695-4.508-3.466
			c-1.652-0.769-3.455-1.155-5.408-1.155c-1.841,0-3.531,0.302-5.071,0.902c-1.542,0.602-2.874,1.465-4,2.591
			c-1.128,1.128-2.001,2.461-2.621,4.002c-0.619,1.539-0.93,3.248-0.93,5.126c0,1.88,0.311,3.588,0.93,5.127
			c0.619,1.54,1.492,2.873,2.621,4c1.126,1.126,2.458,1.991,4,2.591c1.54,0.603,3.229,0.901,5.071,0.901
			c1.953,0,3.756-0.384,5.408-1.154c1.654-0.769,3.155-1.942,4.508-3.521l5.858,5.409c-1.878,2.291-4.197,4.037-6.957,5.239
			C117.685,50.348,114.577,50.948,111.121,50.948"/>
		<path fill="#FFFFFF" d="M127.571,50.274l17.579-39.438h9.015l17.634,39.438h-9.578l-14.424-34.819h3.605l-14.479,34.819H127.571z
			 M136.36,41.822l2.423-6.929h20.283l2.478,6.929H136.36z"/>
		<path fill="#FFFFFF" d="M222.237,27.322l7.245-15.997h2.263l7.267,15.997h-2.399l-6.467-14.718h0.913l-6.466,14.718H222.237z
			 M225.322,23.323l0.616-1.828h9.005l0.662,1.828H225.322z"/>
		<path fill="#FFFFFF" d="M249.752,27.506c-1.234,0-2.37-0.203-3.405-0.605c-1.036-0.403-1.935-0.977-2.697-1.714
			c-0.762-0.739-1.356-1.604-1.782-2.596c-0.428-0.99-0.642-2.08-0.642-3.269c0-1.187,0.213-2.275,0.642-3.267
			c0.426-0.991,1.024-1.855,1.793-2.593c0.77-0.738,1.67-1.312,2.708-1.714c1.036-0.405,2.178-0.606,3.428-0.606
			c1.264,0,2.422,0.204,3.473,0.616c1.051,0.413,1.942,1.028,2.674,1.851l-1.417,1.418c-0.656-0.639-1.368-1.108-2.137-1.405
			c-0.77-0.296-1.604-0.446-2.502-0.446c-0.915,0-1.764,0.152-2.548,0.458c-0.785,0.304-1.463,0.73-2.034,1.278
			c-0.572,0.55-1.013,1.201-1.327,1.955c-0.312,0.755-0.467,1.574-0.467,2.455c0,0.87,0.156,1.681,0.467,2.434
			c0.314,0.755,0.755,1.41,1.327,1.968c0.571,0.557,1.245,0.987,2.021,1.292c0.776,0.304,1.623,0.456,2.538,0.456
			c0.852,0,1.67-0.133,2.455-0.399c0.785-0.267,1.513-0.714,2.185-1.337l1.301,1.736c-0.792,0.669-1.717,1.177-2.777,1.519
			C251.972,27.333,250.879,27.506,249.752,27.506 M253.614,25.174v-5.942h2.193v6.24L253.614,25.174z"/>
		<path fill="#FFFFFF" d="M263.828,25.334h9.325v1.988h-11.61V11.325h11.29v1.986h-9.005V25.334z M263.623,18.226h8.229v1.942
			h-8.229V18.226z"/>
		<polygon fill="#FFFFFF" points="278.225,27.322 278.225,11.325 280.1,11.325 290.68,24.466 289.697,24.466 289.697,11.325 
			291.983,11.325 291.983,27.322 290.111,27.322 279.529,14.181 280.511,14.181 280.511,27.322 		"/>
		<path fill="#FFFFFF" d="M305.306,27.506c-1.218,0-2.343-0.203-3.37-0.607c-1.028-0.401-1.92-0.975-2.675-1.712
			c-0.754-0.739-1.344-1.604-1.771-2.597c-0.426-0.989-0.639-2.078-0.639-3.266s0.213-2.277,0.639-3.27
			c0.428-0.99,1.022-1.854,1.783-2.593c0.763-0.737,1.657-1.311,2.686-1.713c1.029-0.405,2.151-0.607,3.372-0.607
			c1.234,0,2.374,0.21,3.415,0.63c1.045,0.418,1.933,1.039,2.666,1.862l-1.487,1.438c-0.611-0.64-1.296-1.115-2.057-1.427
			s-1.577-0.47-2.446-0.47c-0.897,0-1.732,0.154-2.502,0.458c-0.77,0.304-1.437,0.73-2,1.278c-0.563,0.549-1.002,1.2-1.314,1.955
			c-0.312,0.753-0.468,1.574-0.468,2.457s0.156,1.703,0.468,2.455c0.312,0.754,0.751,1.406,1.314,1.956
			c0.563,0.547,1.229,0.976,2,1.278c0.77,0.307,1.604,0.458,2.502,0.458c0.87,0,1.686-0.155,2.446-0.469
			c0.761-0.313,1.445-0.798,2.057-1.452l1.487,1.44c-0.733,0.822-1.621,1.448-2.666,1.874
			C307.704,27.292,306.555,27.506,305.306,27.506"/>
		<rect x="316.045" y="11.325" fill="#FFFFFF" width="2.287" height="15.997"/>
		<path fill="#FFFFFF" d="M322.08,27.322l7.246-15.997h2.261l7.268,15.997h-2.4l-6.466-14.718h0.916l-6.469,14.718H322.08z
			 M325.164,23.323l0.621-1.828h9.003l0.66,1.828H325.164z"/>
		<path fill="#FFFFFF" d="M350.12,27.32V11.325h6.742c1.707,0,3.213,0.335,4.514,1.007c1.303,0.669,2.314,1.605,3.039,2.81
			c0.725,1.202,1.086,2.598,1.086,4.181c0,1.587-0.361,2.979-1.086,4.184c-0.725,1.203-1.736,2.14-3.039,2.811
			c-1.301,0.67-2.807,1.004-4.514,1.004H350.12z M352.407,25.334h4.316c1.326,0,2.471-0.25,3.441-0.754
			c0.967-0.504,1.715-1.208,2.252-2.115c0.531-0.904,0.797-1.954,0.797-3.143c0-1.201-0.266-2.254-0.797-3.151
			c-0.537-0.9-1.285-1.603-2.252-2.103c-0.971-0.503-2.115-0.755-3.441-0.755h-4.316V25.334z"/>
		<path fill="#FFFFFF" d="M372.655,25.334h9.322v1.988h-11.611V11.325h11.291v1.986h-9.002V25.334z M372.448,18.226h8.227v1.942
			h-8.227V18.226z"/>
		<path fill="#FFFFFF" d="M394.567,27.322V11.325h6.24c1.402,0,2.6,0.221,3.588,0.662c0.988,0.442,1.75,1.081,2.285,1.921
			c0.533,0.838,0.799,1.837,0.799,2.992c0,1.158-0.266,2.151-0.799,2.984c-0.535,0.828-1.297,1.467-2.285,1.905
			c-0.988,0.443-2.186,0.664-3.588,0.664h-4.982l1.031-1.05v5.918H394.567z M396.856,21.632l-1.031-1.121h4.912
			c1.463,0,2.572-0.313,3.328-0.946c0.752-0.634,1.131-1.52,1.131-2.664c0-1.142-0.379-2.025-1.131-2.651
			c-0.756-0.623-1.865-0.936-3.328-0.936h-4.912l1.031-1.142V21.632z M405.263,27.322l-4.066-5.805h2.443l4.113,5.805H405.263z"/>
		<path fill="#FFFFFF" d="M414.841,25.334h9.324v1.988h-11.611V11.325h11.291v1.986h-9.004V25.334z M414.636,18.226h8.229v1.942
			h-8.229V18.226z"/>
		<path fill="#FFFFFF" d="M436.366,27.506c-1.219,0-2.342-0.203-3.371-0.607c-1.025-0.401-1.918-0.975-2.674-1.712
			c-0.754-0.739-1.346-1.604-1.77-2.597c-0.426-0.989-0.641-2.078-0.641-3.266s0.215-2.277,0.641-3.27
			c0.424-0.99,1.018-1.854,1.781-2.593c0.762-0.737,1.656-1.311,2.688-1.713c1.023-0.405,2.15-0.607,3.371-0.607
			c1.232,0,2.373,0.21,3.414,0.63c1.045,0.418,1.93,1.039,2.664,1.862l-1.488,1.438c-0.609-0.64-1.293-1.115-2.055-1.427
			c-0.764-0.312-1.576-0.47-2.447-0.47c-0.898,0-1.732,0.154-2.502,0.458s-1.438,0.73-1.998,1.278
			c-0.564,0.549-1.002,1.2-1.314,1.955c-0.313,0.753-0.471,1.574-0.471,2.457s0.158,1.703,0.471,2.455
			c0.313,0.754,0.75,1.406,1.314,1.956c0.561,0.547,1.229,0.976,1.998,1.278c0.77,0.307,1.604,0.458,2.502,0.458
			c0.871,0,1.684-0.155,2.447-0.469c0.762-0.313,1.445-0.798,2.055-1.452l1.488,1.44c-0.734,0.822-1.619,1.448-2.664,1.874
			C438.765,27.292,437.614,27.506,436.366,27.506"/>
		<path fill="#FFFFFF" d="M444.298,27.322l7.242-15.997h2.264l7.266,15.997h-2.398l-6.465-14.718h0.912l-6.465,14.718H444.298z
			 M447.38,23.323l0.623-1.828h9l0.664,1.828H447.38z"/>
		<path fill="#FFFFFF" d="M471.103,27.506c-2.1,0-3.754-0.604-4.959-1.806c-1.203-1.204-1.803-2.964-1.803-5.28v-9.094h2.281v9.004
			c0,1.782,0.396,3.085,1.178,3.907c0.787,0.822,1.895,1.234,3.326,1.234c1.447,0,2.563-0.412,3.35-1.234
			c0.781-0.822,1.174-2.125,1.174-3.907v-9.004h2.219v9.094c0,2.316-0.598,4.076-1.793,5.28
			C474.878,26.902,473.222,27.506,471.103,27.506"/>
		<path fill="#FFFFFF" d="M483.923,27.32V11.325h6.742c1.703,0,3.209,0.335,4.514,1.007c1.305,0.669,2.313,1.605,3.041,2.81
			c0.719,1.202,1.084,2.598,1.084,4.181c0,1.587-0.365,2.979-1.084,4.184c-0.729,1.203-1.736,2.14-3.041,2.811
			c-1.305,0.67-2.811,1.004-4.514,1.004H483.923z M486.208,25.334h4.318c1.326,0,2.475-0.25,3.439-0.754
			c0.969-0.504,1.719-1.208,2.254-2.115c0.531-0.904,0.801-1.954,0.801-3.143c0-1.201-0.27-2.254-0.801-3.151
			c-0.535-0.9-1.285-1.603-2.254-2.103c-0.965-0.503-2.113-0.755-3.439-0.755h-4.318V25.334z"/>
		<path fill="#FFFFFF" d="M501.521,27.322l7.24-15.997h2.268l7.264,15.997h-2.396l-6.467-14.718h0.914l-6.467,14.718H501.521z
			 M504.604,23.323l0.619-1.828h9.004l0.66,1.828H504.604z"/>
		<path fill="#FFFFFF" d="M528.968,27.506c-1.221,0-2.344-0.203-3.373-0.607c-1.027-0.401-1.922-0.975-2.674-1.712
			c-0.756-0.739-1.344-1.604-1.771-2.597c-0.426-0.989-0.637-2.078-0.637-3.266s0.211-2.277,0.637-3.27
			c0.428-0.99,1.023-1.854,1.783-2.593c0.762-0.737,1.656-1.311,2.686-1.713c1.027-0.405,2.15-0.607,3.371-0.607
			c1.234,0,2.371,0.21,3.414,0.63c1.047,0.418,1.932,1.039,2.666,1.862l-1.488,1.438c-0.607-0.64-1.297-1.115-2.055-1.427
			c-0.76-0.312-1.574-0.47-2.445-0.47c-0.898,0-1.732,0.154-2.504,0.458c-0.768,0.304-1.436,0.73-2,1.278
			c-0.561,0.549-1.002,1.2-1.314,1.955c-0.311,0.753-0.467,1.574-0.467,2.457s0.156,1.703,0.467,2.455
			c0.313,0.754,0.754,1.406,1.314,1.956c0.564,0.547,1.232,0.976,2,1.278c0.771,0.307,1.605,0.458,2.504,0.458
			c0.871,0,1.686-0.155,2.445-0.469c0.758-0.313,1.447-0.798,2.055-1.452l1.488,1.44c-0.734,0.822-1.619,1.448-2.666,1.874
			C531.36,27.292,530.214,27.506,528.968,27.506"/>
		<rect x="539.704" y="11.325" fill="#FFFFFF" width="2.289" height="15.997"/>
		<path fill="#FFFFFF" d="M555.384,27.506c-1.221,0-2.352-0.206-3.395-0.618c-1.041-0.412-1.947-0.985-2.709-1.726
			c-0.76-0.738-1.355-1.604-1.781-2.594c-0.428-0.989-0.643-2.07-0.643-3.244s0.215-2.256,0.643-3.244
			c0.426-0.992,1.021-1.857,1.781-2.595c0.762-0.739,1.664-1.315,2.697-1.727c1.035-0.412,2.172-0.617,3.406-0.617
			c1.219,0,2.342,0.204,3.369,0.607c1.029,0.402,1.926,0.976,2.697,1.713c0.771,0.739,1.361,1.603,1.783,2.593
			c0.416,0.992,0.629,2.082,0.629,3.27s-0.213,2.276-0.629,3.266c-0.422,0.993-1.012,1.857-1.783,2.597
			c-0.771,0.737-1.668,1.311-2.697,1.712C557.726,27.303,556.603,27.506,555.384,27.506 M555.384,25.472
			c0.885,0,1.703-0.151,2.457-0.458c0.752-0.303,1.406-0.733,1.965-1.291c0.555-0.557,0.988-1.207,1.303-1.955
			c0.313-0.745,0.469-1.561,0.469-2.443s-0.156-1.7-0.469-2.445c-0.314-0.746-0.748-1.397-1.303-1.955
			c-0.559-0.556-1.213-0.986-1.965-1.29c-0.754-0.304-1.572-0.457-2.457-0.457c-0.9,0-1.725,0.153-2.48,0.457
			c-0.752,0.304-1.414,0.734-1.977,1.29c-0.564,0.558-1.004,1.209-1.314,1.955c-0.313,0.745-0.467,1.563-0.467,2.445
			s0.154,1.698,0.467,2.443c0.311,0.748,0.75,1.398,1.314,1.955c0.563,0.558,1.225,0.988,1.977,1.291
			C553.659,25.32,554.483,25.472,555.384,25.472 M553.667,10.023l3.111-2.972h2.787l-3.84,2.972H553.667z"/>
		<polygon fill="#FFFFFF" points="568.729,27.322 568.729,11.325 570.604,11.325 581.183,24.466 580.202,24.466 580.202,11.325 
			582.485,11.325 582.485,27.322 580.612,27.322 570.03,14.181 571.017,14.181 571.017,27.322 		"/>
		<polygon fill="#FFFFFF" points="228.521,49.915 228.521,43.792 229.047,45.207 222.168,33.917 224.613,33.917 230.396,43.449 
			229.07,43.449 234.875,33.917 237.137,33.917 230.281,45.207 230.784,43.792 230.784,49.915 		"/>
		<path fill="#FFFFFF" d="M255.488,50.098c-1.219,0-2.344-0.2-3.373-0.604c-1.026-0.403-1.919-0.976-2.673-1.713
			c-0.754-0.741-1.344-1.604-1.77-2.597c-0.427-0.99-0.64-2.077-0.64-3.267c0-1.188,0.213-2.278,0.64-3.269
			c0.425-0.989,1.021-1.854,1.782-2.594c0.761-0.739,1.656-1.309,2.685-1.713c1.028-0.405,2.151-0.606,3.371-0.606
			c1.233,0,2.372,0.209,3.416,0.63c1.043,0.42,1.931,1.039,2.662,1.861l-1.484,1.438c-0.61-0.64-1.296-1.115-2.058-1.426
			c-0.761-0.313-1.578-0.468-2.445-0.468c-0.898,0-1.732,0.151-2.502,0.455c-0.77,0.305-1.437,0.73-2,1.279
			c-0.563,0.548-1.002,1.199-1.313,1.954c-0.313,0.755-0.468,1.573-0.468,2.457s0.155,1.701,0.468,2.458
			c0.312,0.753,0.75,1.403,1.313,1.953c0.563,0.549,1.23,0.974,2,1.278c0.77,0.307,1.604,0.457,2.502,0.457
			c0.868,0,1.684-0.154,2.445-0.468c0.762-0.313,1.448-0.796,2.058-1.451l1.484,1.44c-0.731,0.822-1.619,1.447-2.662,1.872
			C257.882,49.885,256.736,50.098,255.488,50.098"/>
		<path fill="#FFFFFF" d="M273.106,50.098c-1.219,0-2.349-0.206-3.394-0.618c-1.043-0.411-1.944-0.983-2.708-1.725
			c-0.761-0.738-1.355-1.603-1.782-2.593c-0.427-0.991-0.64-2.072-0.64-3.246c0-1.172,0.213-2.255,0.64-3.244
			c0.427-0.991,1.021-1.854,1.782-2.595c0.764-0.738,1.661-1.313,2.696-1.726c1.037-0.41,2.172-0.614,3.406-0.614
			c1.219,0,2.344,0.199,3.372,0.603c1.029,0.406,1.927,0.976,2.696,1.715c0.77,0.74,1.365,1.604,1.784,2.595
			c0.418,0.989,0.629,2.079,0.629,3.267c0,1.189-0.211,2.279-0.629,3.268c-0.419,0.992-1.014,1.855-1.784,2.595
			c-0.769,0.74-1.667,1.312-2.696,1.715C275.45,49.897,274.325,50.098,273.106,50.098 M273.106,48.063
			c0.884,0,1.704-0.152,2.458-0.457c0.753-0.305,1.407-0.733,1.965-1.291c0.554-0.555,0.989-1.207,1.301-1.952
			c0.314-0.747,0.47-1.563,0.47-2.447c0-0.883-0.156-1.697-0.47-2.445c-0.313-0.745-0.747-1.396-1.301-1.953
			c-0.558-0.556-1.211-0.985-1.965-1.291c-0.754-0.304-1.574-0.455-2.458-0.455c-0.898,0-1.725,0.151-2.479,0.455
			c-0.753,0.306-1.412,0.735-1.975,1.291c-0.564,0.557-1.003,1.208-1.316,1.953c-0.312,0.748-0.467,1.563-0.467,2.445
			c0,0.885,0.156,1.7,0.467,2.447c0.313,0.745,0.752,1.397,1.316,1.952c0.563,0.558,1.222,0.986,1.975,1.291
			C271.381,47.911,272.208,48.063,273.106,48.063"/>
		<polygon fill="#FFFFFF" points="286.453,49.915 286.453,33.917 288.328,33.917 298.906,47.059 297.924,47.059 297.924,33.917 
			300.21,33.917 300.21,49.915 298.336,49.915 287.755,36.775 288.739,36.775 288.739,49.915 		"/>
		<polygon fill="#FFFFFF" points="309.557,49.915 309.557,35.907 304.073,35.907 304.073,33.917 317.303,33.917 317.303,35.907 
			311.818,35.907 311.818,49.915 		"/>
		<path fill="#FFFFFF" d="M321.168,49.915V33.917h6.238c1.4,0,2.598,0.222,3.588,0.663c0.987,0.444,1.751,1.082,2.286,1.921
			c0.531,0.838,0.801,1.837,0.801,2.993c0,1.158-0.27,2.152-0.801,2.983c-0.535,0.829-1.299,1.465-2.286,1.907
			c-0.99,0.441-2.188,0.663-3.588,0.663h-4.984l1.031-1.05v5.917H321.168z M323.453,44.225l-1.031-1.119h4.916
			c1.463,0,2.568-0.316,3.322-0.949c0.757-0.63,1.134-1.519,1.134-2.662c0-1.143-0.377-2.024-1.134-2.65
			c-0.754-0.625-1.859-0.937-3.322-0.937h-4.916l1.031-1.144V44.225z M331.862,49.915l-4.069-5.805h2.447l4.112,5.805H331.862z"/>
		<path fill="#FFFFFF" d="M346.372,50.098c-1.217,0-2.35-0.206-3.395-0.618c-1.043-0.411-1.947-0.983-2.707-1.725
			c-0.76-0.738-1.355-1.603-1.781-2.593c-0.426-0.991-0.641-2.072-0.641-3.246c0-1.172,0.215-2.255,0.641-3.244
			c0.426-0.991,1.021-1.854,1.781-2.595c0.76-0.738,1.66-1.313,2.695-1.726c1.037-0.41,2.174-0.614,3.406-0.614
			c1.219,0,2.344,0.199,3.371,0.603c1.029,0.406,1.928,0.976,2.697,1.715c0.768,0.74,1.361,1.604,1.785,2.595
			c0.418,0.989,0.625,2.079,0.625,3.267c0,1.189-0.207,2.279-0.625,3.268c-0.424,0.992-1.018,1.855-1.785,2.595
			c-0.77,0.74-1.668,1.312-2.697,1.715C348.716,49.897,347.591,50.098,346.372,50.098 M346.372,48.063
			c0.883,0,1.703-0.152,2.459-0.457c0.754-0.305,1.408-0.733,1.965-1.291c0.553-0.555,0.99-1.207,1.303-1.952
			c0.309-0.747,0.465-1.563,0.465-2.447c0-0.883-0.156-1.697-0.465-2.445c-0.313-0.745-0.75-1.396-1.303-1.953
			c-0.557-0.556-1.211-0.985-1.965-1.291c-0.756-0.304-1.576-0.455-2.459-0.455c-0.898,0-1.723,0.151-2.48,0.455
			c-0.754,0.306-1.412,0.735-1.975,1.291c-0.564,0.557-1.004,1.208-1.316,1.953c-0.311,0.748-0.465,1.563-0.465,2.445
			c0,0.885,0.154,1.7,0.465,2.447c0.313,0.745,0.752,1.397,1.316,1.952c0.563,0.558,1.221,0.986,1.975,1.291
			C344.649,47.911,345.474,48.063,346.372,48.063"/>
		<polygon fill="#FFFFFF" points="359.72,49.915 359.72,33.917 362.005,33.917 362.005,47.927 370.665,47.927 370.665,49.915 		"/>
		<path fill="#FFFFFF" d="M379.761,49.915l7.242-15.998h2.266l7.266,15.998h-2.4l-6.465-14.716h0.914l-6.467,14.716H379.761z
			 M382.845,45.916l0.619-1.827h9.004l0.66,1.827H382.845z"/>
		<path fill="#FFFFFF" d="M400.282,49.915V33.918h6.742c1.703,0,3.211,0.335,4.516,1.005c1.301,0.673,2.313,1.608,3.039,2.811
			c0.721,1.206,1.082,2.599,1.082,4.183c0,1.586-0.361,2.979-1.082,4.185c-0.727,1.202-1.738,2.139-3.039,2.811
			c-1.305,0.669-2.813,1.004-4.516,1.004H400.282z M402.567,47.927h4.318c1.326,0,2.471-0.251,3.439-0.754
			c0.969-0.504,1.721-1.208,2.252-2.113c0.535-0.907,0.799-1.954,0.799-3.144c0-1.202-0.264-2.255-0.799-3.152
			c-0.531-0.898-1.283-1.601-2.252-2.102c-0.969-0.504-2.113-0.755-3.439-0.755h-4.318V47.927z"/>
		<path fill="#FFFFFF" d="M427.155,50.098c-2.102,0-3.756-0.602-4.959-1.804c-1.203-1.205-1.803-2.964-1.803-5.28v-9.096h2.283
			v9.004c0,1.784,0.393,3.085,1.178,3.909c0.785,0.821,1.893,1.232,3.326,1.232c1.443,0,2.563-0.411,3.348-1.232
			c0.781-0.824,1.176-2.125,1.176-3.909v-9.004h2.217v9.096c0,2.316-0.6,4.075-1.795,5.28
			C430.927,49.496,429.272,50.098,427.155,50.098"/>
		<path fill="#FFFFFF" d="M437.212,49.915l7.244-15.998h2.264l7.268,15.998h-2.402l-6.465-14.716h0.916l-6.469,14.716H437.212z
			 M440.298,45.916l0.617-1.827h9.002l0.664,1.827H440.298z"/>
		<polygon fill="#FFFFFF" points="457.733,49.915 457.733,33.917 459.604,33.917 470.188,47.059 469.204,47.059 469.204,33.917 
			471.491,33.917 471.491,49.915 469.618,49.915 459.036,36.775 460.021,36.775 460.021,49.915 		"/>
		<path fill="#FFFFFF" d="M479.948,47.927h9.324v1.988h-11.611V33.918h11.291v1.989h-9.004V47.927z M479.741,40.82h8.227v1.942
			h-8.227V40.82z"/>
		<path fill="#FFFFFF" d="M494.343,49.915V33.917h6.24c1.402,0,2.6,0.222,3.59,0.663c0.988,0.444,1.75,1.082,2.281,1.921
			c0.537,0.838,0.801,1.837,0.801,2.993c0,1.158-0.264,2.152-0.801,2.983c-0.531,0.829-1.293,1.465-2.281,1.907
			c-0.99,0.441-2.188,0.663-3.59,0.663h-4.982l1.029-1.05v5.917H494.343z M496.63,44.225l-1.029-1.119h4.914
			c1.461,0,2.57-0.316,3.324-0.949c0.756-0.63,1.131-1.519,1.131-2.662c0-1.143-0.375-2.024-1.131-2.65
			c-0.754-0.625-1.863-0.937-3.324-0.937h-4.914l1.029-1.144V44.225z M505.038,49.915l-4.066-5.805h2.443l4.115,5.805H505.038z"/>
		<path fill="#FFFFFF" d="M519.552,50.098c-1.221,0-2.352-0.206-3.395-0.618c-1.045-0.411-1.947-0.983-2.707-1.725
			c-0.764-0.738-1.357-1.603-1.785-2.593c-0.426-0.991-0.639-2.072-0.639-3.246c0-1.172,0.213-2.255,0.639-3.244
			c0.428-0.991,1.021-1.854,1.785-2.595c0.76-0.738,1.658-1.313,2.693-1.726c1.037-0.41,2.172-0.614,3.408-0.614
			c1.217,0,2.342,0.199,3.369,0.603c1.027,0.406,1.928,0.976,2.697,1.715c0.77,0.74,1.363,1.604,1.781,2.595
			c0.422,0.989,0.629,2.079,0.629,3.267c0,1.189-0.207,2.279-0.629,3.268c-0.418,0.992-1.012,1.855-1.781,2.595
			c-0.77,0.74-1.67,1.312-2.697,1.715C521.894,49.897,520.769,50.098,519.552,50.098 M519.552,48.063
			c0.883,0,1.699-0.152,2.455-0.457c0.752-0.305,1.41-0.733,1.963-1.291c0.559-0.555,0.994-1.207,1.305-1.952
			c0.313-0.747,0.469-1.563,0.469-2.447c0-0.883-0.156-1.697-0.469-2.445c-0.311-0.745-0.746-1.396-1.305-1.953
			c-0.553-0.556-1.211-0.985-1.963-1.291c-0.756-0.304-1.572-0.455-2.455-0.455c-0.9,0-1.727,0.151-2.48,0.455
			c-0.756,0.306-1.414,0.735-1.979,1.291c-0.564,0.557-1.002,1.208-1.314,1.953c-0.311,0.748-0.467,1.563-0.467,2.445
			c0,0.885,0.156,1.7,0.467,2.447c0.313,0.745,0.75,1.397,1.314,1.952c0.564,0.558,1.223,0.986,1.979,1.291
			C517.825,47.911,518.651,48.063,519.552,48.063"/>
		<rect x="195.856" y="10.513" fill="#FFFFFF" width="2.256" height="39.726"/>
	</g>
</g>
</svg>
