<?xml version="1.0" standalone="no"?>
<!DOCTYPE svg PUBLIC "-//W3C//DTD SVG 20010904//EN"
 "http://www.w3.org/TR/2001/REC-SVG-20010904/DTD/svg10.dtd">
<svg version="1.0" xmlns="http://www.w3.org/2000/svg"
 width="1024.000000pt" height="1024.000000pt" viewBox="0 0 1024.000000 1024.000000"
 preserveAspectRatio="xMidYMid meet">

<g transform="translate(0.000000,1024.000000) scale(0.100000,-0.100000)"
fill="#003932" stroke="none">
<path d="M6299 7582 c-25 -20 -113 -93 -195 -161 -82 -69 -198 -165 -259 -215
-60 -50 -114 -96 -120 -102 -7 -8 -31 -9 -85 -2 -183 22 -409 -31 -565 -132
-41 -27 -75 -48 -75 -46 0 2 33 28 73 58 84 65 207 129 248 130 35 1 37 8 7
27 -12 7 -60 44 -107 81 -159 126 -506 390 -513 390 -5 0 -8 -209 -8 -465 0
-387 -3 -474 -15 -522 -9 -32 -21 -109 -27 -171 -21 -197 16 -376 113 -549 65
-117 216 -263 334 -325 243 -127 534 -143 780 -44 263 106 453 326 524 606 45
177 38 343 -25 543 l-35 111 3 413 c2 227 1 413 -2 413 -3 0 -26 -17 -51 -38z
m-1265 -1086 c101 -42 187 -207 157 -299 -19 -56 -53 -81 -110 -79 -63 1 -109
21 -154 66 -54 54 -80 111 -80 176 0 120 82 180 187 136z m757 -1 c92 -48 92
-193 -1 -299 -77 -87 -206 -107 -260 -39 -43 55 -18 188 51 266 67 77 147 104
210 72z"/>
<path d="M4550 5551 c-340 -80 -573 -202 -780 -410 -324 -325 -457 -731 -395
-1205 43 -326 234 -660 510 -891 207 -173 495 -308 780 -365 84 -17 159 -24
319 -27 282 -7 434 13 665 89 326 106 565 252 807 493 245 244 399 505 498
840 65 223 74 292 85 635 6 213 9 240 30 285 47 105 138 166 256 171 l70 3 3
189 2 189 -37 7 c-68 11 -208 6 -268 -9 -172 -44 -316 -154 -393 -302 -74
-143 -102 -302 -102 -588 0 -297 -75 -572 -223 -820 -79 -132 -135 -201 -259
-321 -308 -295 -673 -444 -1088 -444 -233 0 -413 37 -588 120 -297 142 -488
333 -591 592 -51 128 -64 217 -58 401 5 187 16 235 85 381 l47 98 -4 -133 c-2
-74 2 -174 9 -224 34 -256 180 -512 385 -675 198 -157 415 -233 665 -233 225
0 386 52 556 182 193 145 299 353 311 606 12 247 -78 477 -263 674 -85 90
-204 181 -389 295 -60 38 -150 94 -200 125 -98 61 -257 185 -320 250 -21 23
-42 41 -45 40 -3 0 -39 -9 -80 -18z"/>
</g>
</svg>
